<svg xmlns="http://www.w3.org/2000/svg" viewBox="0 0 226 72.05"><defs><style>.cls-1{fill:#1d1d1b;}</style></defs><title>logoJL</title><g id="Layer_2" data-name="Layer 2"><g id="JusticeLeague_SingleLine_W_Logo_TitleTreatment"><path d="M11.07,67.15H5.25c-.2,0-.3-.1-.3-.31V36.34c0-.24-.12-.36-.35-.36H.3q-.3,0-.3.36V71.69Q0,72,.3,72H11.07c.23,0,.35-.12.35-.36V67.51C11.42,67.27,11.3,67.15,11.07,67.15Z"/><path d="M17.44,36H13.13q-.35,0-.35.36V71.69q0,.36.35.36h4.31q.3,0,.3-.36V36.34Q17.74,36,17.44,36Z"/><path d="M29.62,36H21.95a2.81,2.81,0,0,0-2.11.9A3,3,0,0,0,19,39.07V69a3,3,0,0,0,.87,2.19,2.81,2.81,0,0,0,2.11.9h3.52a3.8,3.8,0,0,0,1.34-.21,1.9,1.9,0,0,0,.94-.93l.55-.93c.07-.1.13-.15.2-.15s.12.05.15.15l.54,1.75a.39.39,0,0,0,.4.31H32.3q.3,0,.3-.36V53.13q0-.31-.3-.31H27a.42.42,0,0,0-.45.31l-1.14,4.23q-.1.31.25.31h1.83c.23,0,.35.12.35.36v8.92c0,.21-.12.31-.35.31H24.27q-.35,0-.35-.31V41.28q0-.31.35-.31h3.27c.23,0,.35.1.35.31v8a.26.26,0,0,0,.12.23.16.16,0,0,0,.22,0l4.11-3.2a.61.61,0,0,0,.25-.57v-6.7a3,3,0,0,0-.87-2.19A2.81,2.81,0,0,0,29.62,36Z"/><path d="M45,36H38.19c-.2,0-.3.12-.3.36L33.78,71.69q0,.36.3.36h4.06c.23,0,.35-.12.35-.36l.69-6.39a.16.16,0,0,1,.1-.15.43.43,0,0,1,.2-.05h4.06q.3,0,.3.21l.69,6.39q0,.36.35.36h4.21q.3,0,.3-.36L45.27,36.34Q45.27,36,45,36ZM43,60.19H40c-.17,0-.25-.09-.25-.26l1.63-15.61c0-.14.08-.21.15-.21s.12.07.15.21l1.63,15.61C43.29,60.11,43.21,60.19,43,60.19Z"/><path d="M65.56,36H55.7q-.3,0-.3.36V71.69q0,.36.3.36h9.86a3.51,3.51,0,0,0,2.63-1.13,3.8,3.8,0,0,0,1.09-2.73V39.84a3.8,3.8,0,0,0-1.09-2.73A3.51,3.51,0,0,0,65.56,36ZM64.32,66.43a.81.81,0,0,1-.25.57.74.74,0,0,1-.54.26H60.65c-.2,0-.3-.1-.3-.31V41.28c0-.21.1-.31.3-.31h2.87a.75.75,0,0,1,.54.26.8.8,0,0,1,.25.57Z"/><path d="M82.5,36H71q-.3,0-.3.36V71.69q0,.36.3.36H82.5q.3,0,.3-.36V67.61c0-.24-.1-.36-.3-.36H76c-.2,0-.3-.1-.3-.31V55.35c0-.21.1-.31.3-.31h4.41a.39.39,0,0,0,.4-.31l1.14-4.23q.1-.36-.25-.36H76c-.2,0-.3-.12-.3-.36v-8.5c0-.21.1-.31.3-.31H82.5c.2,0,.3-.12.3-.36V36.34Q82.8,36,82.5,36Z"/><path d="M101,67.15H94.56c-.2,0-.3-.1-.3-.31V36.34c0-.24-.12-.36-.35-.36H89.61q-.3,0-.3.36V71.69q0,.36.3.36H101c.23,0,.35-.12.35-.36V67.51C101.4,67.27,101.28,67.15,101,67.15Z"/><path d="M113.54,36h-6.79c-.2,0-.3.12-.3.36l-4.11,35.35q0,.36.3.36h4.06c.23,0,.35-.12.35-.36l.69-6.39a.16.16,0,0,1,.1-.15.43.43,0,0,1,.2-.05h4.06q.3,0,.3.21l.69,6.39q0,.36.35.36h4.21q.3,0,.3-.36l-4.11-35.35Q113.83,36,113.54,36ZM111.6,60.19h-3.07c-.17,0-.25-.09-.25-.26l1.63-15.61c0-.14.08-.21.15-.21s.12.07.15.21l1.63,15.61C111.85,60.11,111.77,60.19,111.6,60.19Z"/><path d="M138,36H127.81q-.35,0-.25.36l1.14,4.23a.39.39,0,0,0,.4.31h4c.2,0,.3.12.3.36V66.95q0,.31-.3.31h-3.12c-.2,0-.3-.1-.3-.31v-8.5a.25.25,0,0,0-.15-.23.19.19,0,0,0-.25,0l-4,3.09a.61.61,0,0,0-.3.52v7.37a2.79,2.79,0,0,0,.79,2,2.58,2.58,0,0,0,1.93.82h7.78a2.9,2.9,0,0,0,2-.8,2.56,2.56,0,0,0,.89-2V36.34Q138.31,36,138,36Z"/><path d="M153.32,36H149q-.35,0-.35.36V66.95q0,.31-.3.31h-3.12c-.2,0-.3-.1-.3-.31V36.34c0-.24-.12-.36-.35-.36h-4.31q-.3,0-.3.36v33a2.65,2.65,0,0,0,.77,1.85,2.45,2.45,0,0,0,1.86.82h8.12a2.9,2.9,0,0,0,2-.8,2.56,2.56,0,0,0,.89-2V36.34Q153.62,36,153.32,36Z"/><path d="M165.61,36h-7.83a2.58,2.58,0,0,0-1.93.82,2.79,2.79,0,0,0-.79,2v11a3.07,3.07,0,0,0,.27,1.34,3.19,3.19,0,0,0,1.07,1.13l6.84,5.05a.56.56,0,0,1,.25.52V67q0,.31-.3.31h-3.12c-.2,0-.3-.1-.3-.31V61.12a.61.61,0,0,0-.3-.52l-4-3a.19.19,0,0,0-.25,0,.25.25,0,0,0-.15.23V69.21a2.79,2.79,0,0,0,.79,2,2.58,2.58,0,0,0,1.93.82h7.68a2.82,2.82,0,0,0,2-.82,2.67,2.67,0,0,0,.87-2V55.81a3,3,0,0,0-1.39-2.42l-6.79-5a.56.56,0,0,1-.25-.52v-6.6c0-.24.1-.36.3-.36h3.12c.2,0,.3.12.3.36v5.87a.25.25,0,0,0,.15.23.19.19,0,0,0,.25,0l4.06-3.19a.76.76,0,0,0,.25-.52V38.81a2.79,2.79,0,0,0-.79-2A2.58,2.58,0,0,0,165.61,36Z"/><path d="M181.32,36H169.84q-.33,0-.33.36v4.33q0,.31.33.31h3.08c.22,0,.33.1.33.31v30.4q0,.36.28.36h4.14c.19,0,.28-.12.28-.36V41.28q0-.31.33-.31h3c.19,0,.28-.1.28-.31V36.34C181.6,36.1,181.5,36,181.32,36Z"/><path d="M187.29,36h-4.12q-.35,0-.35.36V71.69q0,.36.35.36h4.12q.3,0,.3-.36v-17l0,0-2.14,1.4a.05.05,0,0,1-.08-.06l1-3.72a.06.06,0,0,0,0-.07l-2.94-2.14a.05.05,0,0,1,0-.09H187a.07.07,0,0,0,.06,0l.54-2h0V36.34Q187.59,36,187.29,36Z"/><path d="M199.77,36h-7.48a2.73,2.73,0,0,0-2.08.9,3.09,3.09,0,0,0-.84,2.19V48h0l.55,2a.07.07,0,0,0,.06,0h3.54a.05.05,0,0,1,0,.09l-2.94,2.14a.06.06,0,0,0,0,.07l1,3.71a.05.05,0,0,1-.08.06l-2.15-1.4,0,0V69a3.09,3.09,0,0,0,.84,2.19,2.73,2.73,0,0,0,2.08.9h7.48a2.81,2.81,0,0,0,2.1-.9,3,3,0,0,0,.87-2.19V60.86a.61.61,0,0,0-.3-.52l-4-3.09a.19.19,0,0,0-.25,0,.25.25,0,0,0-.15.23v9.22a.6.6,0,0,1-.15.39.49.49,0,0,1-.4.18h-2.58a.56.56,0,0,1-.42-.18.55.55,0,0,1-.17-.39V41.54q0-.57.59-.57h2.58q.54,0,.54.57v7.88a.25.25,0,0,0,.15.23.19.19,0,0,0,.25,0l4-3.09a.65.65,0,0,0,.3-.57v-6.9a3,3,0,0,0-.87-2.19A2.81,2.81,0,0,0,199.77,36Z"/><path d="M208.93,36h-4.31q-.35,0-.35.36V71.69q0,.36.35.36h4.31q.3,0,.3-.36V36.34Q209.23,36,208.93,36Z"/><path d="M221.89,36.34q0-.36-.3-.36H214.8c-.2,0-.3.12-.3.36L210.4,71.69q0,.36.3.36h4.06c.23,0,.35-.12.35-.36l.69-6.39a.16.16,0,0,1,.1-.15.43.43,0,0,1,.2-.05h4.06q.3,0,.3.21l.69,6.39q0,.36.35.36h4.21q.3,0,.3-.36Zm-2.23,23.86h-3.07c-.17,0-.25-.09-.25-.26L218,44.32c0-.14.08-.21.15-.21s.12.07.15.21l1.63,15.61C219.91,60.11,219.82,60.19,219.66,60.19Z"/><path class="cls-1" d="M113,0a14.25,14.25,0,1,0,14.25,14.25A14.25,14.25,0,0,0,113,0Zm3.89,10.43h3.83v2.11a.1.1,0,0,0,.1.1H124a.12.12,0,0,0,.11-.1l.64-4a.05.05,0,0,1,.1,0,13.2,13.2,0,0,1-.34,12.12.05.05,0,0,1-.1,0V17a.1.1,0,0,0-.1-.1h-3.51a.1.1,0,0,0-.1.1V18.9h-1.55a1.29,1.29,0,0,1-1.29-1.29V11.25a.19.19,0,0,0-.08-.15Zm-16.24-.58,1.23.89a.19.19,0,0,1,.08.16V21.28a.05.05,0,0,1-.1,0,13.2,13.2,0,0,1-1.31-11.42A.06.06,0,0,1,100.65,9.86ZM113,27.43a13.16,13.16,0,0,1-10.28-4.93.05.05,0,0,1,0-.09h7.05a.31.31,0,0,0,.18-.06l2.69-2a.19.19,0,0,0,.08-.15V9a.19.19,0,0,0-.08-.15l-2.69-2a.32.32,0,0,0-.18-.06h-7.63a.05.05,0,0,1,0-.08,13.18,13.18,0,0,1,21.74,0,.05.05,0,0,1,0,.08h-1.9a.16.16,0,0,0-.15.09l-.42.9-1.29-.93a.31.31,0,0,0-.18-.06h-3a.32.32,0,0,0-.18.06l-2.7,2a.19.19,0,0,0-.08.15v11.2a.19.19,0,0,0,.08.15l2.7,2a.31.31,0,0,0,.18.06h6.38a.05.05,0,0,1,0,.09A13.16,13.16,0,0,1,113,27.43Zm-8.06-17h2.56a1.29,1.29,0,0,1,1.29,1.29v5.88a1.29,1.29,0,0,1-1.29,1.29h-1.57V11.25a.19.19,0,0,0-.08-.15Z"/></g></g></svg>