<svg id="apple_music" data-name="apple music" xmlns="http://www.w3.org/2000/svg" viewBox="0 0 137.3 78.8"><title>apple-music</title><path d="M.23,40.23a3.69,3.69,0,0,0,.08-.46A11,11,0,0,1,1,36.52,8.44,8.44,0,0,1,4,32.66a7.68,7.68,0,0,1,3.73-1.41,6.36,6.36,0,0,1,2.77.37c.62.22,1.23.47,1.84.69a5.83,5.83,0,0,0,.71.22,2,2,0,0,0,1.21,0l1.39-.5a17,17,0,0,1,2.19-.72,7.28,7.28,0,0,1,3.44,0,7.31,7.31,0,0,1,3.62,2,7.43,7.43,0,0,1,.79,1l-.18.13a7.64,7.64,0,0,0-2.84,3.47,6.89,6.89,0,0,0-.41,3.3,6.63,6.63,0,0,0,1.25,3.34,7.55,7.55,0,0,0,2.83,2.37l.14.07,0,0c0,.14-.08.28-.13.42A18.33,18.33,0,0,1,24,52a20.28,20.28,0,0,1-1.26,1.67,7.93,7.93,0,0,1-1.07,1,3.93,3.93,0,0,1-3.61.71,9.58,9.58,0,0,1-1.17-.42,8.63,8.63,0,0,0-1.62-.56,6.25,6.25,0,0,0-3.53.29c-.46.17-.9.37-1.36.55a5,5,0,0,1-1.58.33,3.19,3.19,0,0,1-1.6-.34,5.21,5.21,0,0,1-1.33-1,15.76,15.76,0,0,1-1.67-2,20.46,20.46,0,0,1-3-5.88,20.13,20.13,0,0,1-.83-3.83c0-.3,0-.61-.08-.91a.8.8,0,0,0-.05-.21Z"/><path d="M96.75,55.74l-.64-.08a11.59,11.59,0,0,1-2.91-.6,7.66,7.66,0,0,1-3-1.91,6.76,6.76,0,0,1-1.77-3.58c0-.17-.05-.35-.08-.52V49h4.39c0,.07,0,.15.05.23a9.3,9.3,0,0,0,.3.89,3.5,3.5,0,0,0,2.35,2,7.22,7.22,0,0,0,2.22.25,6.88,6.88,0,0,0,2-.33,3.76,3.76,0,0,0,1.21-.66,2.51,2.51,0,0,0,.72-2.79,2,2,0,0,0-.64-.89A3.63,3.63,0,0,0,99.65,47c-.58-.18-1.17-.33-1.77-.47-1.2-.29-2.4-.56-3.6-.87a9.73,9.73,0,0,1-2.73-1.13A5.87,5.87,0,0,1,90,43.18a5,5,0,0,1-1.09-2.75,6.13,6.13,0,0,1,.33-2.75,6,6,0,0,1,2.27-2.86,8.66,8.66,0,0,1,3.13-1.31,12.59,12.59,0,0,1,3.57-.23,9.64,9.64,0,0,1,4,1.13,6.55,6.55,0,0,1,3.08,3.51,6.64,6.64,0,0,1,.4,2s0,.05,0,.07,0,0,0,.05h-4.15l-.06-.31a3.54,3.54,0,0,0-2.69-2.89,5.89,5.89,0,0,0-3.64.16,3.14,3.14,0,0,0-1.26.84,2.45,2.45,0,0,0-.6,2.28,2,2,0,0,0,.64,1.07,3.64,3.64,0,0,0,1.12.7,9.46,9.46,0,0,0,1.81.55c1.34.31,2.67.61,4,.94a11.09,11.09,0,0,1,2.41.89,7.07,7.07,0,0,1,1.07.67A4.43,4.43,0,0,1,106,47.53a6.31,6.31,0,0,1-.21,3.6,6.17,6.17,0,0,1-2.11,2.73,9,9,0,0,1-3.2,1.48,12.91,12.91,0,0,1-2.31.36.93.93,0,0,0-.23,0Z"/><path d="M127.18,55.74l-.56-.08a10.36,10.36,0,0,1-3.14-.75,8.93,8.93,0,0,1-4.73-4.54,11.85,11.85,0,0,1-1-3.39,15.82,15.82,0,0,1-.19-3,13.27,13.27,0,0,1,1.09-5.08,9.17,9.17,0,0,1,3.94-4.4,9.85,9.85,0,0,1,3.29-1.11,12.31,12.31,0,0,1,2.78-.11,9.56,9.56,0,0,1,5.2,1.87A8.14,8.14,0,0,1,137,40.29c.05.25.08.51.12.78h-4.23c-.05-.18-.09-.36-.15-.54a4.84,4.84,0,0,0-2.15-2.86,5.09,5.09,0,0,0-2.14-.69,5.63,5.63,0,0,0-2.2.18,5,5,0,0,0-2.76,2,7.54,7.54,0,0,0-1.14,2.69,12.42,12.42,0,0,0-.24,3.44,10.18,10.18,0,0,0,.59,3,6.13,6.13,0,0,0,1.41,2.23,4.93,4.93,0,0,0,3,1.43,6.11,6.11,0,0,0,2.48-.21,4.47,4.47,0,0,0,3-2.89c0-.14.1-.28.14-.42s.08-.29.12-.45h4.27c0,.22,0,.42-.09.61a8.06,8.06,0,0,1-2.12,4.32A8.65,8.65,0,0,1,131,55.26a11.8,11.8,0,0,1-2.5.44l-.21,0Z"/><path d="M48.46,55.3h-3.4L45,55.1l-8.8-21.45-.06-.14c0-.08-.08-.09-.18-.06,0,.65,0,1.31,0,2V55.29H31.76c0-.13-.06-29.45,0-29.7h5.31l.51,1.27q4.51,11.1,9,22.22a.91.91,0,0,0,.07.14.12.12,0,0,0,.21,0c0-.06.05-.13.08-.2q3.93-9.69,7.85-19.39l1.57-3.87a1.47,1.47,0,0,0,.07-.17h5.34V55.3H57.62l0,0s0,0,0,0,0,0,0,0v0h0V33.45c-.12-.06-.15,0-.19.11L56.79,35,48.54,55.12A1.42,1.42,0,0,1,48.46,55.3Z"/><path d="M80.58,33.64H85c0,.15,0,21.26,0,21.63-.15,0-3.68.06-4.23,0,0-.23,0-.47,0-.71V51.66c-.07,0-.11,0-.14,0l-.06.15a6.82,6.82,0,0,1-2.42,2.77,7,7,0,0,1-2.6,1,9.58,9.58,0,0,1-3.5-.06,6.65,6.65,0,0,1-5.29-4.87,9.59,9.59,0,0,1-.4-2.81c0-1.18,0-2.36,0-3.54V33.65h4.44v13A8.44,8.44,0,0,0,71,48.71a4.48,4.48,0,0,0,.81,1.69,3.65,3.65,0,0,0,2,1.26,6,6,0,0,0,3.26,0,4.55,4.55,0,0,0,3.14-3,6.78,6.78,0,0,0,.39-2.09c0-.18,0-.36,0-.54V33.64Z"/><path d="M114.05,55.3h-4.38c0-.16,0-21.46,0-21.65h4.39Z"/><path d="M13.32,30.74a3.92,3.92,0,0,1,0-1.08,7.31,7.31,0,0,1,5.56-6.21c.29-.07.59-.1.91-.15,0,.11,0,.19,0,.27a7.08,7.08,0,0,1-1.54,4.7,6.28,6.28,0,0,1-3.12,2.24,4.67,4.67,0,0,1-1.38.25Z"/><path d="M111.85,30.46a2.55,2.55,0,1,1,0-5.1,2.55,2.55,0,1,1,0,5.1Z"/></svg>