<svg id="svg2" xmlns="http://www.w3.org/2000/svg" viewBox="0 0 300 150">
  <title>deezer-logo-update</title>
  <path id="path22" d="M0,108.3H19.8v-6H0Z" fill="#ed1c24"/>
  <path id="path24" d="M0,100.5H19.8v-6H0Z" fill="#ed1c24"/>
  <path id="path26" d="M0,92.7H19.8v-6H0Z" fill="#ed1c24"/>
  <path id="path28" d="M0,84.9H19.8v-6H0Z" fill="#f6836c"/>
  <path id="path30" d="M0,77.1H19.8v-6H0Z" fill="#f6836c"/>
  <path id="path32" d="M22.2,108.3H42v-6H22.2Z" fill="#fff200"/>
  <path id="path34" d="M22.2,100.5H42v-6H22.2Z" fill="#fff200"/>
  <path id="path36" d="M22.2,92.7H42v-6H22.2Z" fill="#fff200"/>
  <path id="path38" d="M44.4,108.3H64.2v-6H44.4Z" fill="#ec008c"/>
  <path id="path40" d="M44.4,100.5H64.2v-6H44.4Z" fill="#ec008c"/>
  <path id="path42" d="M44.4,92.7H64.2v-6H44.4Z" fill="#ec008c"/>
  <path id="path44" d="M44.4,84.9H64.2v-6H44.4Z" fill="#f680c5"/>
  <path id="path46" d="M44.4,77.1H64.2v-6H44.4Z" fill="#f680c5"/>
  <path id="path48" d="M44.4,69.3H64.2v-6H44.4Z" fill="#f680c5"/>
  <path id="path50" d="M44.4,61.5H64.2v-6H44.4Z" fill="#f680c5"/>
  <path id="path52" d="M66.6,108.3H86.4v-6H66.6Z" fill="#b2db18"/>
  <path id="path54" d="M66.6,100.5H86.4v-6H66.6Z" fill="#b2db18"/>
  <path id="path56" d="M66.6,92.7H86.4v-6H66.6Z" fill="#b2db18"/>
  <path id="path58" d="M66.6,84.9H86.4v-6H66.6Z" fill="#d9ed84"/>
  <path id="path60" d="M66.6,77.1H86.4v-6H66.6Z" fill="#d9ed84"/>
  <path id="path62" d="M88.8,108.3h19.8v-6H88.8Z" fill="#59caf5"/>
  <path id="path64" d="M88.8,100.5h19.8v-6H88.8Z" fill="#59caf5"/>
  <path id="path66" d="M88.8,92.7h19.8v-6H88.8Z" fill="#59caf5"/>
  <path id="path68" d="M88.8,84.9h19.8v-6H88.8Z" fill="#b2e6fa"/>
  <path id="path70" d="M88.8,77.1h19.8v-6H88.8Z" fill="#b2e6fa"/>
  <path id="path72" d="M88.8,69.3h19.8v-6H88.8Z" fill="#b2e6fa"/>
  <path id="path74" d="M88.8,61.5h19.8v-6H88.8Z" fill="#b2e6fa"/>
  <path id="path76" d="M88.8,53.7h19.8v-6H88.8Z" fill="#b2e6fa"/>
  <path id="path78" d="M125.4,100.55h4.65c6.83,0,7.94-3.6,7.94-15V62.64c0-9.87-.84-13.19-8.68-13.19H125.4Zm-9-58.85h14.85c14.94,0,16.35,5.23,16.35,24.6V86.1c0,17.07-3.43,22.2-18,22.2H116.4V41.7" fill="#231f20"/>
  <path id="path80" d="M151.2,41.7h25.2v7.92H160.2V70.5h15v7.8h-15v22.09h16.2v7.91H151.2V41.7" fill="#231f20"/>
  <path id="path82" d="M180,41.7h25.2v7.92H189V70.5h15v7.8H189v22.09h16.2v7.91H180V41.7" fill="#231f20"/>
  <path id="path84" d="M241.8,41.7H267v7.92H250.8V70.5h15v7.8h-15v22.09H267v7.91H241.8V41.7" fill="#231f20"/>
  <path id="path86" d="M208.8,100.5l20.73-51H208.8V41.7h29.4v7.8l-20.38,51H238.2v7.8H208.8v-7.8" fill="#231f20"/>
  <path id="path88" d="M279.6,71.1h2.79c7.29,0,8.4-.9,8.4-10.86s-.89-10.75-6.6-10.75H279.6V71.1Zm-9-29.4H285c13.47,0,14.41,3.43,14.41,18,0,8.94-.85,13.31-8.41,15.62h0c6.27.64,8.42,3.92,8.42,10.19V100a43.35,43.35,0,0,0,.58,8.3h-9c-.93-1.67-.59-3.3-.59-6v-15c0-6.27-1.2-7.79-7.29-7.79H279.6v28.8h-9V41.7" fill="#231f20"/>
</svg>
