<?xml version="1.0" encoding="UTF-8" standalone="no"?>
<svg
   xmlns:dc="http://purl.org/dc/elements/1.1/"
   xmlns:cc="http://creativecommons.org/ns#"
   xmlns:rdf="http://www.w3.org/1999/02/22-rdf-syntax-ns#"
   xmlns:svg="http://www.w3.org/2000/svg"
   xmlns="http://www.w3.org/2000/svg"
   xml:space="preserve"
   enable-background="new 0 0 137.3 78.8"
   viewBox="0 0 137.3 78.8"
   y="0px"
   x="0px"
   id="google_play_music"
   version="1.0"><metadata
     id="metadata16"><rdf:RDF><cc:Work
         rdf:about=""><dc:format>image/svg+xml</dc:format><dc:type
           rdf:resource="http://purl.org/dc/dcmitype/StillImage" /></cc:Work></rdf:RDF></metadata><defs
     id="defs14" /><g
     id="XMLID_419_"><g
       id="XMLID_355_"><path
         d="M0.1,37.1c0-3.9,3.3-7.1,7.2-7.1c2.2,0,3.7,0.9,4.8,2l-1.4,1.4C10,32.5,8.9,32,7.4,32    c-2.9,0-5.1,2.3-5.1,5.2s2.2,5.2,5.1,5.2c1.9,0,2.9-0.7,3.6-1.4c0.6-0.6,0.9-1.4,1.1-2.5H7.5v-2H14c0.1,0.4,0.1,0.8,0.1,1.2    c0,1.4-0.4,3.3-1.7,4.6c-1.2,1.3-2.8,2-5,2C3.4,44.2,0.1,41.1,0.1,37.1z M19.3,35.1c-2.5,0-4.6,2-4.6,4.6s2.1,4.6,4.6,4.6    s4.6-2,4.6-4.6C23.9,37,21.8,35.1,19.3,35.1z M19.3,42.4c-1.4,0-2.6-1.2-2.6-2.7c0-1.7,1.2-2.7,2.6-2.7c1.4,0,2.6,1.2,2.6,2.7    C21.8,41.3,20.7,42.4,19.3,42.4z M29.3,35.1c-2.5,0-4.6,2-4.6,4.6s2.1,4.6,4.6,4.6s4.6-2,4.6-4.6C33.9,37,31.8,35.1,29.3,35.1z     M29.3,42.4c-1.4,0-2.6-1.2-2.6-2.7c0-1.7,1.2-2.7,2.6-2.7s2.6,1.2,2.6,2.7C31.9,41.3,30.7,42.4,29.3,42.4z M41.7,35.4v0.7h-0.1    c-0.4-0.5-1.3-1-2.4-1c-2.3,0-4.4,2-4.4,4.6s2.1,4.6,4.4,4.6c1.1,0,2-0.5,2.4-1h0.1v0.7c0,1.7-0.9,2.7-2.5,2.7    c-1.2,0-2-0.9-2.3-1.7l-1.7,0.7c0.5,1.2,1.8,2.7,4.1,2.7c2.4,0,4.3-1.4,4.3-4.8v-8.2H41.7z M39.4,42.4c-1.4,0-2.5-1.2-2.5-2.7    s1.2-2.8,2.5-2.8s2.5,1.2,2.5,2.8C41.7,41.3,40.7,42.4,39.4,42.4z M44.9,30.5h2V44h-2V30.5z M52.4,42.4c-1,0-1.7-0.4-2.2-1.4    l6.1-2.5L56.1,38c-0.4-1-1.5-2.9-3.9-2.9s-4.3,1.9-4.3,4.6c0,2.6,2,4.6,4.6,4.6c2.1,0,3.3-1.3,3.8-2l-1.6-1    C54.2,41.9,53.5,42.4,52.4,42.4z M52.3,36.9c0.8,0,1.4,0.4,1.7,0.9l-4.1,1.7C49.8,37.7,51.3,36.9,52.3,36.9z"
         fill="#757575"
         id="XMLID_356_" /></g><path
       d="M0,30h56.4v18.4H0L0,30z"
       fill="none"
       id="XMLID_354_" /><path
       d="M0,30h137.3v18.4H0V30z"
       fill="none"
       id="XMLID_353_" /><g
       id="XMLID_345_"><path
         d="M95.2,31.5h1.6l4.3,7.6h0.1l4.3-7.6h1.6V44h-1.6v-7.4l0.1-2.1h-0.1l-3.9,6.8h-0.9    l-3.9-6.8h-0.1l0.1,2.1V44h-1.6L95.2,31.5L95.2,31.5z M115.2,44v-1.2h-0.1c-0.4,0.8-1.5,1.4-2.7,1.4c-2.2,0-3.3-1.4-3.3-3.5v-5.2    h1.6v4.9c0,1.7,0.9,2.4,2.1,2.4c1.4,0,2.2-1.3,2.2-2.6v-4.7h1.6V44H115.2L115.2,44z M117.8,41.8l1.4-0.6c0.4,1.1,1.3,1.6,2.3,1.6    s1.7-0.5,1.7-1.2c0-0.4-0.3-0.9-1.2-1.2l-1.7-0.4c-0.8-0.2-2.2-0.9-2.2-2.4c0-1.5,1.6-2.5,3.4-2.5c1.4,0,2.7,0.7,3.3,2l-1.4,0.6    c-0.4-0.8-1.1-1.2-2-1.2s-1.7,0.4-1.7,1.1c0,0.5,0.4,0.9,1.2,1l1.7,0.4c1.7,0.4,2.3,1.4,2.3,2.5c0,1.5-1.4,2.7-3.3,2.7    C119.4,44.2,118.3,43,117.8,41.8L117.8,41.8z M125.8,32.5c0-0.7,0.5-1.2,1.2-1.2c0.7,0,1.2,0.5,1.2,1.2s-0.5,1.2-1.2,1.2    C126.3,33.6,125.8,33.1,125.8,32.5z M126.1,44v-8.5h1.6V44H126.1z M129,39.7c0-2.6,1.8-4.6,4.3-4.6c2,0,3.2,1.2,3.8,2.5l-1.4,0.6    c-0.4-1-1.2-1.6-2.4-1.6c-1.4,0-2.7,1.2-2.7,3s1.3,3,2.7,3c1.2,0,2-0.6,2.5-1.6l1.4,0.6c-0.5,1.2-1.7,2.5-3.8,2.5    C130.9,44.2,129,42.3,129,39.7L129,39.7z"
         fill="#FF5722"
         id="XMLID_346_" /></g><g
       id="XMLID_337_"><path
         d="M65.2,30.5h-4.8V44h2v-5.1h2.8c2.2,0,4.4-1.6,4.4-4.2S67.4,30.5,65.2,30.5z M65.2,37h-2.9    v-4.6h2.9c1.5,0,2.4,1.2,2.4,2.3C67.6,35.7,66.8,37,65.2,37z M72.8,44V30.5h-2V44H72.8z M81.8,44v-5.1c0-2.4-1.8-3.8-4.1-3.8    c-1.4,0-3,0.7-3.6,2.1l1.8,0.7c0.4-0.7,1.1-1,1.8-1c1,0,2.1,0.7,2.1,1.7v0.1c-0.4-0.2-1.2-0.5-2.1-0.5c-2,0-3.9,1.1-3.9,3    c0,1.8,1.6,3,3.3,3c1.4,0,2.1-0.6,2.5-1.3h0.1v1H81.8z M77.5,42.4c-0.7,0-1.6-0.4-1.6-1.2c0-1,1.2-1.4,2.1-1.4    c0.9,0,1.3,0.2,1.8,0.4C79.7,41.6,78.6,42.4,77.5,42.4z M88.8,35.4l-2.3,5.9h-0.1l-2.4-5.9h-2.2l3.6,8.2l-2,4.6h2.1l5.5-12.7H88.8    L88.8,35.4z"
         fill="#757575"
         id="XMLID_338_" /></g></g></svg>