<?xml version="1.0" encoding="UTF-8" standalone="no"?>
<svg
   xmlns:dc="http://purl.org/dc/elements/1.1/"
   xmlns:cc="http://creativecommons.org/ns#"
   xmlns:rdf="http://www.w3.org/1999/02/22-rdf-syntax-ns#"
   xmlns:svg="http://www.w3.org/2000/svg"
   xmlns="http://www.w3.org/2000/svg"
   xml:space="preserve"
   enable-background="new 0 0 137.3 77.8"
   viewBox="0 0 137.3 77.8"
   y="0px"
   x="0px"
   id="spotify"
   version="1.0"><metadata
     id="metadata9"><rdf:RDF><cc:Work
         rdf:about=""><dc:format>image/svg+xml</dc:format><dc:type
           rdf:resource="http://purl.org/dc/dcmitype/StillImage" /></cc:Work></rdf:RDF></metadata><defs
     id="defs7" /><g
     id="XMLID_18_"><path
       d="M20.8,18.4c-11.3,0-20.5,9.2-20.5,20.5c0,11.3,9.2,20.5,20.5,20.5   c11.3,0,20.5-9.2,20.5-20.5C41.3,27.6,32.1,18.4,20.8,18.4L20.8,18.4z M30.2,48c-0.4,0.6-1.2,0.8-1.8,0.4c-4.8-2.9-10.9-3.6-18-2   c-0.7,0.2-1.4-0.3-1.5-1c-0.2-0.7,0.3-1.4,1-1.5c7.8-1.8,14.5-1,19.9,2.3C30.3,46.6,30.5,47.4,30.2,48z M32.7,42.4   c-0.5,0.8-1.4,1-2.2,0.5C25,39.6,16.6,38.6,10,40.6c-0.8,0.3-1.7-0.2-2-1.1c-0.3-0.8,0.2-1.7,1.1-2c7.5-2.3,16.7-1.2,23,2.7   C32.9,40.7,33.1,41.7,32.7,42.4L32.7,42.4z M32.9,36.6c-6.6-3.9-17.5-4.3-23.8-2.4C8,34.5,7,34,6.7,33c-0.3-1,0.3-2.1,1.3-2.4   c7.2-2.2,19.3-1.8,26.9,2.7c0.9,0.5,1.2,1.7,0.7,2.6C35,36.9,33.8,37.2,32.9,36.6L32.9,36.6z M56.1,37.4c-3.5-0.8-4.2-1.4-4.2-2.7   c0-1.2,1.1-2,2.8-2c1.6,0,3.2,0.6,4.8,1.8c0,0,0.1,0.1,0.2,0c0.1,0,0.1,0,0.2-0.1l1.7-2.4c0.1-0.1,0.1-0.2,0-0.3   c-2-1.6-4.2-2.4-6.8-2.4c-3.8,0-6.5,2.3-6.5,5.6c0,3.5,2.3,4.8,6.3,5.7c3.4,0.8,4,1.4,4,2.6c0,1.3-1.2,2.1-3,2.1   c-2.1,0-3.8-0.7-5.6-2.3c0,0-0.1-0.1-0.2-0.1c-0.1,0-0.1,0-0.2,0.1l-1.9,2.3c-0.1,0.1-0.1,0.2,0,0.3c2.2,2,4.9,3,7.8,3   c4.1,0,6.8-2.3,6.8-5.7C62.1,40,60.4,38.4,56.1,37.4C56.1,37.4,56.1,37.4,56.1,37.4z M71.5,33.9c-1.8,0-3.3,0.7-4.5,2.1v-1.6   c0-0.1-0.1-0.2-0.2-0.2h-3.2c-0.1,0-0.2,0.1-0.2,0.2v18c0,0.1,0.1,0.2,0.2,0.2h3.2c0.1,0,0.2-0.1,0.2-0.2v-5.7c1.2,1.4,2.7,2,4.5,2   c3.3,0,6.7-2.6,6.7-7.4C78.1,36.4,74.8,33.9,71.5,33.9L71.5,33.9L71.5,33.9z M74.5,41.3c0,2.5-1.5,4.2-3.7,4.2   c-2.2,0-3.8-1.8-3.8-4.2c0-2.4,1.6-4.2,3.8-4.2C72.9,37.1,74.5,38.9,74.5,41.3L74.5,41.3z M86.8,33.9c-4.3,0-7.6,3.3-7.6,7.5   c0,4.2,3.3,7.4,7.6,7.4c4.3,0,7.6-3.3,7.6-7.5C94.4,37.1,91,33.9,86.8,33.9L86.8,33.9z M86.8,45.6c-2.3,0-4-1.8-4-4.2   c0-2.4,1.7-4.2,3.9-4.2c2.3,0,4,1.8,4,4.3C90.7,43.8,89,45.6,86.8,45.6z M103.5,34.2H100v-3.6c0-0.1-0.1-0.2-0.2-0.2h-3.2   c-0.1,0-0.2,0.1-0.2,0.2v3.6h-1.5c-0.1,0-0.2,0.1-0.2,0.2v2.7c0,0.1,0.1,0.2,0.2,0.2h1.5v7.1c0,2.8,1.4,4.3,4.2,4.3   c1.1,0,2.1-0.2,3-0.7c0.1,0,0.1-0.1,0.1-0.2v-2.6c0-0.1,0-0.2-0.1-0.2c-0.1,0-0.2,0-0.2,0c-0.6,0.3-1.2,0.4-1.9,0.4   c-1,0-1.5-0.5-1.5-1.5v-6.6h3.5c0.1,0,0.2-0.1,0.2-0.2v-2.7C103.7,34.3,103.6,34.2,103.5,34.2L103.5,34.2L103.5,34.2z M115.6,34.2   v-0.4c0-1.3,0.5-1.9,1.6-1.9c0.7,0,1.2,0.1,1.8,0.3c0.1,0,0.1,0,0.2,0c0.1,0,0.1-0.1,0.1-0.2v-2.7c0-0.1-0.1-0.2-0.2-0.2   c-0.6-0.2-1.4-0.4-2.6-0.4c-2.9,0-4.5,1.6-4.5,4.8v0.7h-1.5c-0.1,0-0.2,0.1-0.2,0.2v2.7c0,0.1,0.1,0.2,0.2,0.2h1.5v10.9   c0,0.1,0.1,0.2,0.2,0.2h3.2c0.1,0,0.2-0.1,0.2-0.2V37.4h3l4.5,10.9c-0.5,1.1-1,1.4-1.7,1.4c-0.6,0-1.1-0.2-1.7-0.5   c-0.1,0-0.1,0-0.2,0c-0.1,0-0.1,0.1-0.1,0.1l-1.1,2.4c-0.1,0.1,0,0.2,0.1,0.3c1.1,0.6,2.1,0.9,3.4,0.9c2.3,0,3.6-1.1,4.8-4   l5.5-14.2c0-0.1,0-0.2,0-0.2c0-0.1-0.1-0.1-0.2-0.1h-3.3c-0.1,0-0.2,0.1-0.2,0.2L125,44l-3.7-9.7c0-0.1-0.1-0.1-0.2-0.1L115.6,34.2   L115.6,34.2L115.6,34.2z M108.6,34.2h-3.2c-0.1,0-0.2,0.1-0.2,0.2v13.8c0,0.1,0.1,0.2,0.2,0.2h3.2c0.1,0,0.2-0.1,0.2-0.2V34.4   C108.8,34.3,108.7,34.2,108.6,34.2L108.6,34.2z M107,27.9c-1.3,0-2.3,1-2.3,2.3c0,1.3,1,2.3,2.3,2.3c1.3,0,2.3-1,2.3-2.3   C109.3,28.9,108.3,27.9,107,27.9z M134.8,38.6c-1.3,0-2.2-1-2.2-2.2c0-1.2,1-2.2,2.2-2.2s2.2,1,2.2,2.2   C137.1,37.6,136.1,38.6,134.8,38.6z M134.8,34.4c-1.1,0-2,0.9-2,2c0,1.1,0.9,2,2,2c1.1,0,2-0.9,2-2C136.8,35.3,136,34.4,134.8,34.4   z M135.3,36.6l0.6,0.9h-0.5l-0.6-0.8h-0.5v0.8h-0.4v-2.3h1c0.5,0,0.9,0.3,0.9,0.7C135.9,36.3,135.6,36.5,135.3,36.6L135.3,36.6z    M134.9,35.5h-0.6v0.7h0.6c0.3,0,0.5-0.1,0.5-0.4C135.4,35.7,135.2,35.5,134.9,35.5z"
       fill="#1ED760"
       id="XMLID_19_" /></g></svg>