<svg id="Layer_1" data-name="Layer 1" xmlns="http://www.w3.org/2000/svg" viewBox="0 0 2500 723"><title>youtube-music-logo</title><path d="M897.6,140.24a115,115,0,0,0-81-81.28c-71.49-19.2-358.18-19.2-358.18-19.2s-286.67,0-358.15,19.2a115,115,0,0,0-81.06,81.28C0,211.89,0,361.5,0,361.5S0,511.08,19.19,582.76a115,115,0,0,0,81,81.25c71.49,19.23,358.19,19.23,358.19,19.23s286.69,0,358.15-19.2a115,115,0,0,0,81.05-81.28c19.2-71.68,19.2-221.26,19.2-221.26S916.7,212,897.6,140.24Z" fill="red"/><path d="M366.64,499.43,604.82,361.57l-238.18-138Z" fill="#fff"/><path d="M1320.08,289.36c-16.4,83.46-28.83,185.41-35.41,227.41h-4.62c-5.2-43.37-17.73-144.6-34.68-226.79l-42-204.34H1075.55V637.16h79.33V182.54l7.84,42.43,80.6,412.1h79.33L1401.94,225l8.53-42.66V637.13h79.33V85.64H1360.65l-40.54,203.72Zm384.11,264.93c-7.25,15.13-22.94,25.67-38.72,25.67-18.35,0-25.57-14.48-25.57-49.94V234.21h-90.49v301c0,74.32,24.21,108.45,78,108.45,36.67,0,66.19-16.43,86.56-55.87h2l7.87,49.27h70.77V234.14h-90.45V554.32h.06Zm265.48-161c-29.51-21.71-47.83-36.15-47.83-67.71,0-22.33,10.48-34.82,35.37-34.82,25.61,0,34.13,17.8,34.72,78.25l76.07-3.25c5.86-97.94-26.19-138.71-109.49-138.71-77.34,0-115.38,34.82-115.38,106.46,0,65.08,31.46,94.69,82.55,133.41,43.93,34.2,69.5,53.27,69.5,80.83,0,21-13.14,35.46-36.08,35.46-26.85,0-42.63-25.64-38.63-70.28l-76.69,1.3c-11.75,83.46,21.67,132.11,110.79,132.11,78,0,118.64-36.15,118.64-108.42C2073.27,472.13,2040.44,445.87,1969.67,393.26Zm153.42-159h86.55V637.16h-86.55Zm43.93-159c-33.45,0-49.14,12.46-49.14,55.84,0,44.71,15.69,55.83,49.14,55.83,34.1,0,49.13-11.19,49.13-55.83C2216.15,89.61,2201.12,75.16,2167,75.16Zm333.61,416.72-79.29-3.94c0,71-7.85,94-34.72,94s-31.47-25.64-31.47-109.1V394.53c0-80.83,5.21-106.47,32.15-106.47,24.89,0,31.47,24.27,31.47,99.28l78.64-5.21c5.21-62.47-2.63-105.2-26.88-129.5-17.73-17.77-44.57-26.26-82-26.26-87.85,0-123.91,47.31-123.91,180.1V463c0,136.73,30.79,180.75,120.59,180.75,38.07,0,64.23-7.84,82-25,25.57-23.85,35.4-64.55,33.41-127Z"/></svg>